<svg width="1082" height="185" viewBox="0 0 1082 185" fill="none" xmlns="http://www.w3.org/2000/svg">
<path d="M504.059 179.109H564.769L567.769 164.559H568.269C572.269 171.325 578.539 176.325 587.079 179.559C595.609 183.069 606.649 184.559 620.189 184.559C637.999 184.559 654.299 180.789 669.099 172.769C683.649 164.769 695.189 153.949 703.219 139.909C711.457 125.661 715.703 109.456 715.509 92.9988C715.509 75.9388 709.739 62.6488 698.199 52.8688C686.659 43.0888 670.859 38.0688 650.789 38.0688C625.209 38.0688 605.639 44.5888 592.349 57.3788H591.849L603.829 0.00878906H541.129L504.059 179.109ZM621.199 80.2788C630.739 80.2788 637.759 82.2788 642.779 86.2788C647.799 90.2788 650.299 96.0588 650.299 103.589C650.437 113.718 646.666 123.51 639.769 130.929C632.769 138.699 622.459 142.469 608.659 142.469C598.659 142.469 591.099 140.709 586.589 136.949C582.069 133.435 579.812 128.165 579.819 121.139C579.929 115.947 580.77 110.796 582.319 105.839C583.855 100.525 586.592 95.6362 590.319 91.5488C594.041 87.7085 598.604 84.7851 603.649 83.0088C609.306 81.1282 615.237 80.2055 621.199 80.2788ZM790.049 125.179H927.999C929.852 116.517 930.856 107.695 930.999 98.8388C930.999 78.0188 923.729 62.4688 909.179 51.9288C894.629 41.6488 872.559 36.3788 842.459 36.3788C817.379 36.3788 795.809 40.8988 777.999 49.4288C760.189 57.9588 747.139 69.4888 739.119 83.5388C731.293 96.9388 727.153 112.171 727.119 127.689C727.119 146.249 734.639 160.549 749.689 170.079C757.219 175.079 766.749 178.609 777.789 181.079C788.829 183.549 801.869 184.599 817.169 184.599C844.259 184.599 866.829 180.829 884.889 172.809C902.949 164.789 916.249 153.239 924.769 137.939H857.999C854.234 141.936 849.602 145.016 844.459 146.939C839.189 148.939 831.919 149.939 822.889 149.939C812.599 149.939 804.569 148.179 798.549 144.169C792.529 140.159 789.779 134.889 789.779 128.169L790.049 125.179ZM871.319 93.5688H796.569C799.829 85.0088 805.099 79.0088 812.119 75.2588C819.139 71.5088 828.119 69.4888 838.709 69.4888C849.299 69.4888 857.269 71.4888 863.039 75.2588C868.559 79.0188 871.569 84.0388 871.569 90.5588L871.319 93.5688ZM1055.21 179.109L1062.73 142.489C1057.73 142.989 1050.94 142.989 1042.66 142.989C1037.66 142.989 1034.14 142.489 1032.13 141.229C1030.13 140.229 1029.13 138.229 1029.13 135.229C1029.34 132.61 1029.76 130.012 1030.38 127.459L1039.9 81.0088H1073.77L1081.77 41.8788H1047.91L1056.72 0.00878906H993.999L985.199 41.8988H956.129L948.099 81.0088H977.199L965.409 137.699C963.945 143.608 963.186 149.671 963.149 155.759C963.149 162.759 964.649 168.049 968.149 171.759C971.571 175.681 976.105 178.471 981.149 179.759C986.669 181.259 995.949 182.012 1008.99 182.019C1018.77 182.019 1027.55 181.765 1035.33 181.259C1041.99 180.905 1048.63 180.188 1055.21 179.109Z" fill="white"/>
<path d="M255.488 179.109H409.998C420.475 179.262 430.929 178.083 441.108 175.599C450.566 173.215 459.439 168.932 467.188 163.009C474.975 156.754 481.093 148.671 484.998 139.479C489.268 129.939 491.518 120.909 491.518 112.389C491.599 104.972 489.411 97.7074 485.248 91.5686C481.288 85.8632 475.418 81.7628 468.698 80.0086V79.5086C477.732 76.2486 485.005 70.2286 490.518 61.4486C496.104 52.6923 498.985 42.4833 498.798 32.0986C498.798 21.3086 494.798 13.2886 487.258 8.01855C479.478 2.74855 468.698 0.0185547 454.898 0.0185547H292.608L255.488 179.109ZM352.808 43.6586H406.488C410.327 43.5427 414.155 44.136 417.778 45.4086C418.935 45.9156 419.912 46.7591 420.583 47.8292C421.253 48.8994 421.586 50.1466 421.538 51.4086C421.538 56.4086 420.038 60.4086 417.028 62.9486C414.018 65.4886 409.028 66.7085 401.718 66.7085H348.048L352.808 43.6586ZM339.518 107.369H397.458C403.728 107.369 408.248 108.369 411.258 109.879C412.691 110.586 413.883 111.701 414.686 113.083C415.488 114.465 415.865 116.053 415.768 117.649C415.86 120.035 415.437 122.414 414.527 124.623C413.618 126.831 412.244 128.818 410.498 130.449C406.988 133.959 401.978 135.449 394.948 135.449H333.748L339.518 107.369Z" fill="#E83C60"/>
<path d="M252.34 59.2086C252.324 69.1503 251.319 79.0658 249.34 88.8086C247.261 99.0134 244.248 109.005 240.34 118.659C223.787 159.039 190.593 179.189 140.76 179.109H0L18.56 89.5586L22.56 69.3686H93.56L80 134.009H121.64C140.2 134.009 153.99 128.489 163.02 116.949C172.02 105.659 176.57 91.8686 176.82 75.5586C176.82 55.4986 164.53 45.2086 140.2 45.2086H2.42L11.7 0.00858986H176.34C187.558 -0.113406 198.753 1.06444 209.7 3.51859C219.23 6.02859 227.01 9.51859 233.28 14.0586C245.82 23.5886 252.34 38.6386 252.34 59.2086Z" fill="#E83C60"/>
</svg>
